<svg width="17" height="18" viewBox="0 0 17 18" fill="none" xmlns="http://www.w3.org/2000/svg"><path fill-rule="evenodd" clip-rule="evenodd" d="M4.795 11.473h7.026a.791.791 0 0 0 0-1.583H4.795a.791.791 0 0 0 0 1.582zm2.86-8.506H8.96a.791.791 0 0 0 0-1.582H7.655a.791.791 0 0 0 0 1.582zm8.17-1.582h-1.652a.791.791 0 0 0 0 1.582h.86v13.45H1.583V2.968h.86a.791.791 0 0 0 0-1.582H.79c-.437 0-.791.426-.791.863v14.96c0 .438.354.792.791.792h15.033a.791.791 0 0 0 .791-.791V2.248c0-.437-.354-.863-.79-.863zM4.794 7.912h7.026a.791.791 0 0 0 0-1.582H4.795a.791.791 0 0 0 0 1.582zm6.678-3.404a.99.99 0 0 0 .989-.99V.99a.99.99 0 0 0-1.978 0v2.53a.99.99 0 0 0 .989.989zm-7.32-.99V.99a.99.99 0 0 1 1.979 0v2.53a.99.99 0 0 1-1.978 0z" fill="#8F9092"/></svg>