<svg viewBox="0 0 321 370" fill="none" xmlns="http://www.w3.org/2000/svg"><rect x="120.218" y="7.084" width="209.774" height="299" rx="17.69" transform="rotate(22.322 120.218 7.084)" fill="#fff" stroke="#DFDFDF" stroke-width="10"/><path fill-rule="evenodd" clip-rule="evenodd" d="M26.93 247.461l-8.986 21.884c-2.662 6.483.436 13.897 6.92 16.559l161.325 66.236c6.484 2.662 13.897-.435 16.559-6.919l25.619-62.398c-42.723 20.292-94.635 22.917-143.167 2.99-22.494-9.235-42.1-22.428-58.27-38.352z" fill="#DFDFDF" fill-opacity=".32"/><path d="M124.538 149.424l-11.259-12.387c-.762-1.13-.887-2.816.243-3.578.637-.556 1.273-1.112 1.767-1.318 1.13-.762 2.816-.887 3.784.736l9.842 13.849c.762 1.13.537 2.672-.593 3.434-.986.412-2.672.538-3.784-.736zm8.772-7.432l-8.012-14.323c-.619-1.48-.394-3.022 1.086-3.64.493-.206 1.13-.762 1.973-.825 1.479-.618 3.228.1 3.846 1.58l6.39 15.291c.618 1.48.044 2.878-1.436 3.497-1.336.268-3.228-.1-3.847-1.58zm10.646-5.028l-4.56-15.765c-.269-1.337.449-3.085 1.786-3.354.493-.206 1.336-.268 1.829-.475 1.48-.618 2.941.799 3.559 2.279l2.731 16.241c.269 1.336-.655 2.591-2.135 3.21-1.336.268-2.941-.799-3.21-2.136zm11.327-2.705l-.695-16.222c-.125-1.686 1.148-2.797 2.485-3.066.843-.062 1.336-.269 2.035.019 1.686-.126 3.147 1.292 2.779 3.184l-.991 16.347c-.224 1.542-1.498 2.654-2.691 2.573-1.192-.081-2.797-1.149-2.922-2.835zm11.864-.032l2.883-15.979c.224-1.543 1.848-2.511 3.39-2.286.699.287 1.542.225 1.892.368 1.542.225 2.51 1.848 2.142 3.74l-4.775 15.611c-.574 1.399-1.704 2.161-3.247 1.936-1.542-.224-2.51-1.848-2.285-3.39zm-37.904 92.318l-9.096 12.202c-1.068 1.605-3.247 1.936-4.708.519-3.067-2.485-5.989-5.32-8.418-8.36-1.112-1.274-.95-3.659.673-4.627l12.019-9.368c1.274-1.111 3.166-.743 4.627.674 1.318 1.767 2.779 3.184 4.59 4.745.906.78 1.237 2.96.313 4.215zm-13.689-15.428l-13.337 7.601c-1.623.968-3.865.456-4.69-1.517a51.604 51.604 0 0 1-3.503-8.385c-.475-1.83.386-3.928 2.216-4.403l14.779-4.148c1.83-.474 3.578.243 4.053 2.073l1.855 4.439c.968 1.624.25 3.372-1.373 4.34zm-1.816-47.33l-13.701-6.443c-1.748-.718-2.43-3.04-1.711-4.789 1.498-2.654 2.996-5.308 4.844-7.818 1.068-1.605 3.247-1.936 4.852-.869l12.058 9.446c1.256.924 1.587 3.104.663 4.359-.924 1.255-1.498 2.654-2.566 4.259a3.388 3.388 0 0 1-4.439 1.855zm48.538 73.869l.364 14.043c.25 3.371-1.661 5.039-3.203 4.814-2.385-.162-5.12-.468-7.506-.63-1.892-.368-3.209-2.135-2.841-4.027l2.802-14.786c.368-1.892 1.991-2.86 4.027-2.842l3.578.243c1.336-.268 2.797 1.149 2.779 3.185zm-17.316-2.615l-4.612 13.226c-1.293 3.147-2.916 4.115-5.014 3.254-2.448-1.005-4.546-1.867-6.85-3.222-1.605-1.067-2.43-3.04-1.362-4.645l7.841-13.126c1.068-1.605 2.897-2.08 4.646-1.362l3.147 1.292c1.748.718 2.573 2.691 2.204 4.583zm67.42-41.787l13.737 2.371c3.085.449 4.403 2.216 4.035 4.108-.88 4.134-2.254 8.474-3.977 12.67-8.327 20.282-24.885 34.733-44.453 40.592-1.83.475-3.784-.736-3.909-2.422l-3.655-14.986c-.475-1.829.593-3.434 2.422-3.909 12.888-4.516 23.714-13.965 29.313-27.602 1.149-2.798 1.804-5.389 2.603-8.33.718-1.749 2.342-2.717 3.884-2.492zm-31.29-56.163l5.456-13.288c.861-2.098 3.184-2.779 4.933-2.061 21.599 10.094 35.807 30.23 39.325 52.515.331 2.179-1.229 3.99-3.409 4.321l-14.473 1.413c-2.036-.018-3.641-1.086-4.116-2.915-2.462-14.905-12.098-28.26-26.498-34.99-1.255-.924-1.936-3.246-1.218-4.995zm-36.977 31.143l-5.135-5.638c-.348-.514-.406-1.28.109-1.626.29-.253.58-.505.804-.599.515-.346 1.283-.402 1.725.337l4.49 6.301c.347.514.246 1.215-.269 1.561-.449.187-1.217.244-1.724-.336zm3.993-3.376l-3.657-6.516c-.282-.673-.18-1.374.494-1.655.224-.093.514-.346.898-.374a1.354 1.354 0 0 1 1.753.72l2.918 6.956c.282.673.021 1.309-.653 1.589-.608.122-1.471-.046-1.753-.72zm4.848-2.281l-2.084-7.171c-.123-.608.203-1.403.812-1.524.224-.094.608-.122.833-.215.674-.281 1.34.364 1.623 1.037l1.251 7.386c.123.608-.298 1.178-.972 1.459-.608.122-1.34-.365-1.463-.972zm5.159-1.225l-.323-7.377c-.058-.767.522-1.272 1.13-1.393.384-.029.609-.122.928.009.768-.056 1.434.589 1.267 1.449l-.444 7.433c-.102.701-.682 1.206-1.225 1.169-.544-.038-1.275-.524-1.333-1.29zm5.405-.01l1.307-7.265c.101-.701.841-1.141 1.543-1.038.319.131.703.103.862.168.703.103 1.145.842.978 1.702l-2.169 7.096c-.261.636-.775.982-1.478.879-.703-.102-1.144-.841-1.043-1.542zm-17.229 41.963l-4.139 5.544c-.485.73-1.478.879-2.144.234-1.398-1.131-2.731-2.421-3.839-3.805-.507-.58-.434-1.664.305-2.104l5.471-4.254c.58-.505 1.442-.337 2.109.308.601.804 1.267 1.449 2.093 2.16.413.355.565 1.346.144 1.917zm-6.243-7.022l-6.073 3.451c-.739.439-1.76.206-2.137-.692a23.556 23.556 0 0 1-1.6-3.814c-.217-.833.175-1.786 1.008-2.001l6.732-1.88c.833-.215 1.63.112 1.847.944l.847 2.02c.442.738.115 1.533-.624 1.972zm-.848-21.523l-6.244-2.935c-.797-.327-1.108-1.384-.782-2.178.682-1.206 1.363-2.413 2.204-3.553.485-.73 1.478-.879 2.21-.393l5.498 4.3c.572.421.724 1.412.303 1.982-.42.571-.681 1.206-1.167 1.936a1.541 1.541 0 0 1-2.022.841zm22.145 33.611l.172 6.386c.116 1.533-.754 2.291-1.457 2.188-1.087-.075-2.333-.215-3.42-.29-.862-.168-1.463-.972-1.296-1.832l1.27-6.723c.167-.86.906-1.3 1.834-1.29l1.63.112c.609-.122 1.275.523 1.267 1.449zm-7.889-1.196l-2.096 6.012c-.588 1.43-1.327 1.87-2.283 1.477-1.116-.458-2.072-.85-3.122-1.467-.732-.487-1.108-1.384-.623-2.113l3.567-5.966c.486-.729 1.319-.944 2.116-.617l1.434.589c.797.327 1.174 1.225 1.007 2.085zm30.697-18.973l6.26 1.084c1.405.206 2.006 1.01 1.84 1.87-.4 1.879-1.023 3.852-1.807 5.759-3.785 9.22-11.322 15.784-20.235 18.44-.833.215-1.724-.337-1.782-1.104l-1.671-6.815c-.217-.833.269-1.562 1.102-1.777 5.869-2.048 10.798-6.34 13.343-12.539.522-1.271.819-2.45 1.182-3.787.326-.794 1.065-1.234 1.768-1.131zm-14.279-25.552l2.48-6.04c.391-.953 1.449-1.262 2.246-.935 9.845 4.599 16.327 13.762 17.939 23.897.152.991-.559 1.813-1.551 1.963l-6.594.636c-.927-.009-1.659-.495-1.876-1.327-1.128-6.779-5.524-12.856-12.087-15.922-.572-.42-.883-1.477-.557-2.272zm-14.035 17.216l-1.51-1.658c-.102-.152-.119-.377.032-.479.086-.074.171-.148.237-.176.151-.102.377-.118.507.099l1.321 1.853a.33.33 0 0 1-.079.46c-.133.055-.358.071-.508-.099zm1.175-.993l-1.076-1.917c-.083-.198-.053-.404.146-.487.066-.027.151-.101.264-.11a.398.398 0 0 1 .515.212l.859 2.046c.083.198.006.385-.192.468-.179.035-.433-.014-.516-.212zm1.426-.671l-.613-2.109c-.036-.179.06-.413.239-.449.066-.027.179-.035.245-.063.198-.082.394.107.477.305l.368 2.173c.036.178-.088.346-.286.429-.179.035-.394-.108-.43-.286zm1.517-.361l-.095-2.169c-.017-.226.154-.374.333-.41.113-.008.179-.036.272.003a.35.35 0 0 1 .373.426l-.131 2.186c-.029.206-.2.355-.36.344-.16-.011-.375-.154-.392-.38zm1.59-.002l.384-2.137c.03-.206.248-.336.454-.305.094.038.207.03.254.049.206.03.336.247.287.5l-.638 2.088c-.076.187-.228.288-.434.258-.207-.03-.337-.247-.307-.453zm-5.067 12.341l-1.218 1.631a.405.405 0 0 1-.631.069 7.515 7.515 0 0 1-1.129-1.119c-.149-.171-.127-.49.09-.619l1.609-1.251c.171-.149.425-.099.621.091.176.236.372.426.615.635.122.104.166.396.043.563zm-1.837-2.065l-1.786 1.015a.432.432 0 0 1-.628-.203 6.81 6.81 0 0 1-.471-1.122c-.064-.245.051-.525.297-.589l1.979-.552c.245-.064.48.032.544.277l.249.594c.13.217.034.451-.184.58zm-.249-6.33l-1.837-.863c-.234-.096-.325-.407-.23-.641.201-.355.401-.709.649-1.045a.467.467 0 0 1 .65-.115l1.617 1.264c.168.124.213.416.089.583-.124.168-.2.355-.343.57a.455.455 0 0 1-.595.247zm6.513 9.886l.051 1.878c.034.451-.222.674-.429.643-.319-.022-.686-.063-1.006-.085a.467.467 0 0 1-.381-.539l.374-1.977c.049-.253.266-.382.539-.38l.479.033c.18-.035.375.154.373.427zm-2.32-.352l-.617 1.768c-.172.421-.39.55-.671.435a6.911 6.911 0 0 1-.918-.432c-.216-.143-.326-.407-.183-.622l1.049-1.754a.492.492 0 0 1 .622-.182l.422.174c.234.096.345.36.296.613zm9.028-5.58l1.842.318c.413.061.59.297.541.55a9.986 9.986 0 0 1-.532 1.694c-1.113 2.712-3.33 4.642-5.951 5.424-.245.063-.507-.099-.524-.325l-.492-2.005c-.064-.244.079-.459.324-.522 1.727-.602 3.176-1.865 3.925-3.688.153-.374.241-.72.347-1.114.096-.233.314-.363.52-.332zm-4.199-7.516l.729-1.776a.507.507 0 0 1 .661-.275c2.895 1.353 4.802 4.047 5.276 7.028.045.292-.164.534-.456.578l-1.94.187c-.272-.003-.488-.146-.551-.391a6.321 6.321 0 0 0-3.555-4.682c-.169-.124-.26-.435-.164-.669z" fill="#F2795F"/></svg>